<svg xmlns="http://www.w3.org/2000/svg" viewBox="0 0 870 521" width="870" height="521">
	<style>
		tspan { white-space:pre }
		.shp0 { fill: #f2f2f2 } 
		.shp1 { fill: #ffffff } 
		.shp2 { fill: #cccccc } 
		.shp3 { fill: #6ef0c5 } 
		.shp4 { fill: #ffb8b8 } 
		.shp5 { fill: #2f2e41 } 
	</style>
	<path id="Layer" class="shp0" d="M666.09 514.26C654.95 504.84 648.19 489.98 649.96 475.5C651.74 461.03 662.73 447.72 676.98 444.65C691.24 441.58 707.49 450.08 711.81 464.01C714.2 437.16 716.94 409.19 731.22 386.33C744.14 365.63 766.53 350.82 790.79 348.17C815.05 345.52 840.59 355.52 855.72 374.67C870.85 393.82 874.55 421.66 863.96 443.64C856.15 459.84 841.77 471.89 826.7 481.69C814.65 489.47 801.93 496.15 788.68 501.66C775.44 507.17 761.73 511.48 747.72 514.54C733.71 517.61 719.46 519.41 705.12 519.94C690.79 520.46 676.44 519.7 662.25 517.67L666.09 514.26Z" />
	<path id="Layer" class="shp1" d="M831.73 356.08C826.73 360.15 821.83 364.35 817.03 368.66C812.24 372.98 807.55 377.41 802.97 381.95C798.4 386.5 793.93 391.15 789.59 395.92C785.24 400.68 781.01 405.55 776.9 410.52C770.48 418.27 764.36 426.26 758.54 434.47C752.73 442.68 747.24 451.12 742.07 459.75C736.9 468.39 732.07 477.21 727.58 486.22C723.09 495.22 718.94 504.39 715.15 513.72C714.04 516.44 718.46 517.63 719.56 514.93C725.75 499.83 732.86 485.13 740.88 470.91C748.89 456.7 757.79 443 767.51 429.89C777.23 416.78 787.76 404.29 799.03 392.49C810.31 380.7 822.31 369.62 834.96 359.31C837.25 357.45 833.99 354.23 831.73 356.08Z" />
	<path id="Layer" class="shp0" d="M280.07 511.7C295.37 498.77 304.66 478.35 302.22 458.47C299.78 438.59 284.69 420.32 265.11 416.09C245.53 411.87 223.21 423.56 217.27 442.68C213.99 405.81 210.22 367.39 190.62 335.99C172.87 307.56 142.12 287.21 108.8 283.57C75.48 279.93 40.4 293.68 19.62 319.98C-1.17 346.28 -6.25 384.51 8.3 414.71C19.02 436.95 38.78 453.51 59.47 466.97C125.5 509.94 207.41 527.86 285.35 516.39" />
	<path id="Layer" class="shp1" d="M52.57 294.44C59.44 300.04 66.16 305.8 72.75 311.72C79.33 317.65 85.77 323.74 92.06 329.98C98.34 336.22 104.48 342.61 110.45 349.16C116.42 355.7 122.23 362.39 127.87 369.22C133.51 376.04 138.99 383 144.3 390.09C149.6 397.17 154.74 404.39 159.69 411.72C164.65 419.06 169.43 426.52 174.03 434.08C178.62 441.65 183.03 449.33 187.26 457.11C189.62 461.48 191.92 465.88 194.16 470.31C196.4 474.74 198.59 479.2 200.71 483.69C202.83 488.17 204.89 492.69 206.88 497.24C208.88 501.78 210.81 506.36 212.69 510.96C214.21 514.7 208.14 516.33 206.63 512.63C203.31 504.52 199.8 496.5 196.09 488.57C192.39 480.64 188.49 472.8 184.39 465.06C180.3 457.32 176.02 449.68 171.56 442.15C167.09 434.62 162.45 427.2 157.62 419.9C152.81 412.62 147.83 405.46 142.68 398.43C137.53 391.39 132.21 384.48 126.72 377.71C121.24 370.93 115.59 364.29 109.78 357.78C103.97 351.28 98.01 344.92 91.89 338.7C88.43 335.19 84.92 331.72 81.36 328.3C77.81 324.88 74.2 321.51 70.55 318.19C66.9 314.87 63.21 311.6 59.47 308.38C55.73 305.17 51.95 302 48.12 298.89C44.99 296.33 49.46 291.91 52.57 294.44L52.57 294.44Z" />
	<path id="Layer" class="shp0" d="M624.5 519L259.5 519L259.5 144.5C259.5 64.82 324.32 0 404 0L480 0C559.68 0 624.5 64.82 624.5 144.5L624.5 519Z" />
	<path id="Layer" class="shp2" d="M548.5 519L259.5 519L259.5 144.5C259.48 136.93 260.06 129.36 261.24 121.88C262.41 114.4 264.18 107.03 266.52 99.82C268.85 92.62 271.76 85.62 275.21 78.87C278.65 72.13 282.63 65.67 287.1 59.56C287.76 58.65 288.42 57.76 289.1 56.87C291.28 54.02 293.56 51.25 295.94 48.57C298.32 45.89 300.8 43.3 303.37 40.8C305.94 38.31 308.61 35.9 311.36 33.61C314.11 31.31 316.94 29.11 319.86 27.02C320.52 26.54 321.18 26.07 321.85 25.6C324.29 23.91 326.78 22.3 329.32 20.76C331.86 19.23 334.45 17.77 337.08 16.4C339.71 15.02 342.38 13.73 345.09 12.52C347.8 11.31 350.55 10.18 353.32 9.14C353.99 8.89 354.66 8.64 355.33 8.4C357.85 7.5 360.38 6.68 362.94 5.92C365.5 5.16 368.08 4.48 370.68 3.87C373.28 3.25 375.89 2.71 378.52 2.25C381.15 1.78 383.79 1.38 386.44 1.06C387.1 0.97 387.77 0.9 388.45 0.83C391.03 0.56 393.62 0.35 396.21 0.21C398.81 0.07 401.4 0 404 0C406.6 0 409.19 0.07 411.79 0.21C414.38 0.35 416.97 0.56 419.55 0.83C420.23 0.9 420.9 0.97 421.57 1.06C424.22 1.39 426.86 1.78 429.48 2.25C432.11 2.71 434.72 3.25 437.32 3.87C439.92 4.48 442.5 5.16 445.06 5.92C447.62 6.68 450.15 7.5 452.67 8.4C453.34 8.64 454.01 8.89 454.68 9.14C457.42 10.17 460.13 11.28 462.81 12.47C465.49 13.67 468.13 14.94 470.73 16.3C473.33 17.65 475.88 19.09 478.39 20.6C480.9 22.11 483.37 23.7 485.78 25.36C486.46 25.82 487.13 26.29 487.79 26.76C489.43 27.93 491.04 29.13 492.62 30.37C494.21 31.6 495.77 32.87 497.3 34.16C498.84 35.46 500.34 36.79 501.82 38.15C503.3 39.51 504.75 40.91 506.17 42.33C507.31 43.47 508.43 44.63 509.54 45.8C510.64 46.98 511.72 48.18 512.78 49.39C513.84 50.6 514.88 51.83 515.9 53.08C516.92 54.33 517.92 55.6 518.9 56.88C519.58 57.76 520.24 58.65 520.9 59.55C525.37 65.67 529.35 72.13 532.79 78.87C536.24 85.62 539.14 92.62 541.48 99.82C543.82 107.03 545.59 114.4 546.76 121.88C547.94 129.36 548.52 136.93 548.5 144.5L548.5 519Z" />
	<path id="Layer" class="shp3" d="M525 351.5C516.15 351.5 509 344.35 509 335.5C509 326.65 516.15 319.5 525 319.5C533.85 319.5 541 326.65 541 335.5C541 344.35 533.85 351.5 525 351.5Z" />
	<path id="Layer" class="shp4" d="M594.6 507.78L582.34 507.78L576.51 460.5L594.6 460.5L594.6 507.78L594.6 507.78Z" />
	<path id="Layer" class="shp5" d="M573.58 504.28L597.23 504.28L597.23 519.17L558.69 519.17L558.69 519.17C558.69 517.21 559.08 515.28 559.83 513.47C560.58 511.66 561.67 510.02 563.06 508.64C564.44 507.26 566.08 506.16 567.88 505.41C569.69 504.66 571.63 504.28 573.58 504.28L573.58 504.28Z" />
	<path id="Layer" class="shp4" d="M655.6 507.78L643.34 507.78L637.51 460.5L655.6 460.5L655.6 507.78L655.6 507.78Z" />
	<path id="Layer" class="shp5" d="M634.58 504.28L658.23 504.28L658.23 519.17L619.69 519.17L619.69 519.17C619.69 517.21 620.08 515.28 620.83 513.47C621.58 511.66 622.67 510.02 624.06 508.64C625.44 507.26 627.08 506.16 628.88 505.41C630.69 504.66 632.63 504.28 634.58 504.28L634.58 504.28Z" />
	<path id="Layer" class="shp4" d="M533.1 338.67C532.22 337.37 531.63 335.89 531.38 334.34C531.13 332.79 531.22 331.21 531.65 329.7C532.08 328.18 532.84 326.79 533.87 325.6C534.9 324.41 536.17 323.47 537.61 322.83L579.28 207.96L599.79 219.15L552.21 328.92C553.12 331.4 553.1 334.13 552.13 336.6C551.17 339.06 549.34 341.08 546.98 342.28C544.63 343.48 541.91 343.78 539.35 343.11C536.79 342.45 534.57 340.87 533.1 338.67L533.1 338.67Z" />
	<path id="Layer" class="shp4" d="M649.34 360.25C647.97 359.47 646.8 358.4 645.9 357.12C644.99 355.83 644.38 354.37 644.1 352.82C643.83 351.27 643.89 349.69 644.3 348.17C644.7 346.65 645.44 345.24 646.44 344.04L633.53 222.53L656.87 223.59L662.24 343.11C664.15 344.94 665.32 347.41 665.53 350.04C665.75 352.68 664.99 355.3 663.4 357.41C661.81 359.53 659.5 360.98 656.91 361.51C654.32 362.03 651.62 361.58 649.34 360.25L649.34 360.25Z" />
	<path id="Layer" class="shp4" d="M612.11 186.68C598.52 186.68 587.54 175.7 587.54 162.12C587.54 148.54 598.52 137.56 612.11 137.56C625.69 137.56 636.67 148.54 636.67 162.12C636.67 175.7 625.69 186.68 612.11 186.68Z" />
	<path id="Layer" class="shp3" d="M649.18 332.62L575.13 332.62L575.22 332.04C575.35 331.18 588.42 245.6 578.78 217.61C578.3 216.24 578.08 214.8 578.12 213.36C578.16 211.91 578.47 210.49 579.02 209.15C579.58 207.82 580.37 206.59 581.37 205.55C582.37 204.5 583.55 203.64 584.85 203.02L584.85 203.02C598.62 196.54 625.06 188.55 647.37 207.93C649.01 209.38 650.47 211.01 651.73 212.79C652.99 214.57 654.04 216.49 654.86 218.51C655.68 220.54 656.26 222.65 656.59 224.81C656.92 226.96 657.01 229.15 656.83 231.33L649.18 332.62Z" />
	<path id="Layer" class="shp3" d="M589.35 258.25L556.02 251.49L571.64 214.46C572.58 210.87 574.9 207.8 578.09 205.92C581.29 204.04 585.1 203.51 588.69 204.44C592.28 205.36 595.35 207.67 597.24 210.87C599.12 214.06 599.67 217.86 598.75 221.46L589.35 258.25Z" />
	<path id="Layer" class="shp3" d="M632.05 270.81L630.05 224.87C628.53 216.23 633.47 208.07 641.07 206.73C648.68 205.4 656.11 211.39 657.63 220.09L665.16 263.02L632.05 270.81Z" />
	<path id="Layer" class="shp5" d="M646.72 327.12C658.63 372.5 659.93 430.19 656.72 493.12L640.72 491.12L611.72 371.12L595.72 493.12L577.72 492.12C572.34 426.09 567.1 369.4 575.72 332.12L646.72 327.12Z" />
	<path id="Layer" class="shp5" d="M628.29 181.1C623.71 185.98 615.2 183.36 614.6 176.7C614.59 176.57 614.58 176.44 614.58 176.31C614.57 176.18 614.57 176.05 614.57 175.92C614.57 175.79 614.57 175.66 614.58 175.53C614.59 175.4 614.6 175.27 614.61 175.14C614.92 172.19 616.63 169.51 616.22 166.39C616.19 166.19 616.16 166 616.11 165.81C616.06 165.63 616 165.44 615.93 165.26C615.86 165.08 615.78 164.9 615.69 164.73C615.59 164.56 615.49 164.4 615.38 164.24C611.73 159.35 603.15 166.43 599.71 162C597.6 159.29 600.08 155.01 598.46 151.98C596.32 147.98 589.98 149.95 586 147.76C581.58 145.32 581.85 138.53 584.76 134.4C588.31 129.37 594.53 126.69 600.68 126.3C606.83 125.91 612.93 127.57 618.67 129.81C625.19 132.35 631.66 135.86 635.67 141.6C640.55 148.57 641.02 157.95 638.58 166.1C637.1 171.06 632.03 177.12 628.29 181.1Z" />
	<path id="Layer" class="shp1" d="M469 410.5L339 410.5C338.15 410.5 337.31 410.34 336.53 410.02C335.74 409.7 335.03 409.23 334.42 408.64C333.82 408.04 333.34 407.33 333.01 406.55C332.68 405.77 332.51 404.93 332.5 404.08L332.5 113.92C332.51 113.07 332.68 112.23 333.01 111.45C333.34 110.67 333.82 109.96 334.42 109.36C335.03 108.77 335.74 108.3 336.53 107.98C337.31 107.66 338.15 107.5 339 107.5L469 107.5C469.85 107.5 470.69 107.66 471.47 107.98C472.26 108.3 472.97 108.77 473.58 109.36C474.18 109.96 474.66 110.67 474.99 111.45C475.32 112.23 475.49 113.07 475.5 113.92L475.5 404.08C475.49 404.93 475.32 405.77 474.99 406.55C474.66 407.33 474.18 408.04 473.58 408.64C472.97 409.23 472.26 409.7 471.47 410.02C470.69 410.34 469.85 410.5 469 410.5L469 410.5Z" />
	<path id="Layer" class="shp2" d="M332.5 201.39L475.5 201.39L475.5 203.39L332.5 203.39L332.5 201.39Z" />
	<path id="Layer" class="shp2" d="M333 315.5L476 315.5L476 317.5L333 317.5L333 315.5Z" />
	<path id="Layer" class="shp2" d="M377.5 107.5L379.5 107.5L379.5 411.5L377.5 411.5L377.5 107.5Z" />
	<path id="Layer" class="shp2" d="M427.5 107.5L429.5 107.5L429.5 411.5L427.5 411.5L427.5 107.5Z" />
</svg>